<svg xmlns="http://www.w3.org/2000/svg" xmlns:xlink="http://www.w3.org/1999/xlink" width="179.961" height="45.306" viewBox="0 0 179.961 45.306">
  <defs>
    <radialGradient id="radial-gradient" cx="0.726" cy="0.346" r="1.176" gradientTransform="matrix(0.924, 0.383, -0.383, 0.924, 0.153, -0.228)" gradientUnits="objectBoundingBox">
      <stop offset="0.165" stop-color="#f3aa70"/>
      <stop offset="0.346" stop-color="#f27e20"/>
      <stop offset="1" stop-color="#3a1a0b"/>
    </radialGradient>
    <linearGradient id="linear-gradient" x1="0.5" y1="-0.002" x2="0.5" y2="1.018" gradientUnits="objectBoundingBox">
      <stop offset="0" stop-color="#11af4b"/>
      <stop offset="0.107" stop-color="#50ba6d"/>
      <stop offset="0.17" stop-color="#71c17f"/>
      <stop offset="0.83" stop-color="#11af4b"/>
      <stop offset="1" stop-color="#0c552b"/>
      <stop offset="1"/>
    </linearGradient>
    <linearGradient id="linear-gradient-4" x1="0.5" y1="0.003" x2="0.5" y2="1.003" gradientUnits="objectBoundingBox">
      <stop offset="0" stop-color="#f27e20"/>
      <stop offset="0.165" stop-color="#f3aa70"/>
      <stop offset="0.341" stop-color="#f27e20"/>
      <stop offset="0.824" stop-color="#f27e20"/>
      <stop offset="1" stop-color="#7d421c"/>
    </linearGradient>
    <linearGradient id="linear-gradient-5" x1="0.5" y1="0.003" x2="0.5" y2="1.003" gradientUnits="objectBoundingBox">
      <stop offset="0" stop-color="#f27e20"/>
      <stop offset="0.104" stop-color="#f3aa70"/>
      <stop offset="0.341" stop-color="#f27e20"/>
      <stop offset="0.868" stop-color="#f27e20"/>
      <stop offset="0.893" stop-color="#e1751f"/>
      <stop offset="0.943" stop-color="#b65f1d"/>
      <stop offset="1" stop-color="#7d421c"/>
    </linearGradient>
  </defs>
  <g id="Group_637" data-name="Group 637" transform="translate(-1497.344 -98.681)">
    <g id="Group_636" data-name="Group 636">
      <path id="Path_2544" data-name="Path 2544" d="M1572.733,119.208a1.314,1.314,0,0,0,.634-.175c.1-.082.148-.29.148-.624v-3.958a.923.923,0,0,0-.144-.626,1.1,1.1,0,0,0-.638-.173v-.165h2.4a4.746,4.746,0,0,1,2.05.4,2.592,2.592,0,0,1,1.512,2.563,3.027,3.027,0,0,1-.272,1.264,2.6,2.6,0,0,1-.818,1.013,2.8,2.8,0,0,1-.722.4,4.861,4.861,0,0,1-1.676.252h-2.472Zm1.792-.235a.906.906,0,0,0,.441.07,3.24,3.24,0,0,0,1.716-.413,2.342,2.342,0,0,0,1.034-2.17,2.5,2.5,0,0,0-.852-2.061,2.98,2.98,0,0,0-1.933-.591.866.866,0,0,0-.406.065c-.071.044-.107.139-.107.287v4.526A.321.321,0,0,0,1574.525,118.973Z" fill="#016937"/>
      <path id="Path_2545" data-name="Path 2545" d="M1581.947,115.722a1.548,1.548,0,0,1,.46,1.2h-2.758a2.312,2.312,0,0,0,.456,1.465,1.273,1.273,0,0,0,.977.459,1.23,1.23,0,0,0,.769-.238,2.4,2.4,0,0,0,.578-.676l.152.052a2.475,2.475,0,0,1-.667,1.022,1.658,1.658,0,0,1-1.2.47,1.464,1.464,0,0,1-1.262-.617,2.368,2.368,0,0,1-.445-1.42,2.317,2.317,0,0,1,.517-1.508,1.656,1.656,0,0,1,1.347-.634A1.534,1.534,0,0,1,1581.947,115.722Zm-2.081.332a1.723,1.723,0,0,0-.2.591h1.833a1.761,1.761,0,0,0-.165-.647.75.75,0,0,0-.712-.383A.83.83,0,0,0,1579.866,116.054Z" fill="#016937"/>
      <path id="Path_2546" data-name="Path 2546" d="M1582.651,121.167a.7.7,0,0,0,.515-.174.777.777,0,0,0,.11-.465v-4.17a.72.72,0,0,0-.08-.423.385.385,0,0,0-.3-.094c-.032,0-.062,0-.089,0s-.067.009-.119.018v-.144l.412-.134q.023,0,.873-.3a.036.036,0,0,1,.033.02.094.094,0,0,1,.011.045v.586a3.117,3.117,0,0,1,.5-.425,1.5,1.5,0,0,1,.8-.243,1.311,1.311,0,0,1,1.031.51,2.09,2.09,0,0,1,.432,1.395,2.6,2.6,0,0,1-.519,1.575,1.561,1.561,0,0,1-1.3.707,1.319,1.319,0,0,1-.421-.06,1.257,1.257,0,0,1-.513-.335v1.425c0,.292.048.472.143.539a1.453,1.453,0,0,0,.626.134v.152h-2.146Zm1.714-2.157a.945.945,0,0,0,.527.146.968.968,0,0,0,.8-.467,2.2,2.2,0,0,0,.332-1.3,1.772,1.772,0,0,0-.345-1.193,1.039,1.039,0,0,0-.8-.395.963.963,0,0,0-.586.2.527.527,0,0,0-.265.389v2.182A.877.877,0,0,0,1584.365,119.01Z" fill="#016937"/>
      <path id="Path_2547" data-name="Path 2547" d="M1587.834,117.457a9.414,9.414,0,0,1,1.594-.708v-.369a1.517,1.517,0,0,0-.087-.617.619.619,0,0,0-.613-.291.837.837,0,0,0-.421.113.358.358,0,0,0-.2.321,1.109,1.109,0,0,0,.022.176,1.185,1.185,0,0,1,.022.159.362.362,0,0,1-.161.339.41.41,0,0,1-.217.056.365.365,0,0,1-.3-.128.436.436,0,0,1-.1-.285.9.9,0,0,1,.376-.636,1.61,1.61,0,0,1,1.1-.332,1.182,1.182,0,0,1,1.142.547,1.893,1.893,0,0,1,.161.873v1.742a1.177,1.177,0,0,0,.035.348.226.226,0,0,0,.234.169.393.393,0,0,0,.165-.03,1.749,1.749,0,0,0,.226-.148v.226a1.412,1.412,0,0,1-.3.278.878.878,0,0,1-.5.165.485.485,0,0,1-.428-.191.865.865,0,0,1-.145-.456,4,4,0,0,1-.565.425,1.473,1.473,0,0,1-.751.235.907.907,0,0,1-.648-.263.885.885,0,0,1-.273-.667A1.237,1.237,0,0,1,1587.834,117.457Zm1.594-.491a3.975,3.975,0,0,0-.825.365,1.074,1.074,0,0,0-.626.878.668.668,0,0,0,.261.582.633.633,0,0,0,.378.121,1.037,1.037,0,0,0,.549-.16.474.474,0,0,0,.263-.409Z" fill="#016937"/>
      <path id="Path_2548" data-name="Path 2548" d="M1590.688,119.23a1.061,1.061,0,0,0,.53-.142.582.582,0,0,0,.13-.454v-1.959a1.693,1.693,0,0,0-.08-.615.292.292,0,0,0-.293-.184.836.836,0,0,0-.115.011c-.048.007-.1.016-.15.028v-.143l.506-.179c.173-.06.293-.1.36-.13.144-.055.293-.117.446-.187a.035.035,0,0,1,.037.022.43.43,0,0,1,.006.091v.713a3.322,3.322,0,0,1,.538-.6.829.829,0,0,1,.538-.217.506.506,0,0,1,.362.132.471.471,0,0,1,.033.632.344.344,0,0,1-.268.122.5.5,0,0,1-.332-.152.467.467,0,0,0-.263-.152q-.151,0-.374.245a.758.758,0,0,0-.221.506v1.96a.648.648,0,0,0,.174.519.877.877,0,0,0,.578.137v.143h-2.142Z" fill="#016937"/>
      <path id="Path_2549" data-name="Path 2549" d="M1595.7,115.368v.312h-.886l-.009,2.5a1.7,1.7,0,0,0,.056.5.4.4,0,0,0,.409.3.491.491,0,0,0,.271-.074,1.369,1.369,0,0,0,.263-.235l.113.1-.095.13a1.39,1.39,0,0,1-.478.43,1.089,1.089,0,0,1-.487.126.684.684,0,0,1-.695-.456,1.879,1.879,0,0,1-.1-.686V115.68h-.473a.1.1,0,0,1-.033-.026.053.053,0,0,1-.011-.035.1.1,0,0,1,.02-.067,1.222,1.222,0,0,1,.124-.111,3.948,3.948,0,0,0,.432-.4q.132-.155.623-.815a.137.137,0,0,1,.067.009c.008.006.011.027.011.065v1.069Z" fill="#016937"/>
      <path id="Path_2550" data-name="Path 2550" d="M1595.871,119.26a.993.993,0,0,0,.452-.113.6.6,0,0,0,.173-.5V116.4a.709.709,0,0,0-.084-.421.349.349,0,0,0-.281-.1.758.758,0,0,0-.136.009.592.592,0,0,0-.107.03v-.152l.313-.1q.169-.057.556-.2t.408-.147a.024.024,0,0,1,.026.021.487.487,0,0,1,.005.083V116a3.27,3.27,0,0,1,.742-.541,1.474,1.474,0,0,1,.644-.15.9.9,0,0,1,.712.3,1.3,1.3,0,0,1,.23.447,3.665,3.665,0,0,1,.561-.482,1.529,1.529,0,0,1,.843-.269.911.911,0,0,1,.934.569,2.837,2.837,0,0,1,.134,1.016v1.8a.518.518,0,0,0,.137.419.96.96,0,0,0,.493.146v.113h-1.959v-.122a.856.856,0,0,0,.5-.152.683.683,0,0,0,.12-.478v-1.872a1.6,1.6,0,0,0-.091-.621.623.623,0,0,0-.631-.356,1,1,0,0,0-.56.186,2.827,2.827,0,0,0-.395.348v2.224a.945.945,0,0,0,.124.534.625.625,0,0,0,.523.2v.113h-1.994v-.113a.8.8,0,0,0,.526-.2,1.442,1.442,0,0,0,.113-.73v-1.214a3.242,3.242,0,0,0-.087-.919.583.583,0,0,0-.608-.425,1.046,1.046,0,0,0-.522.145,1.667,1.667,0,0,0-.452.38v2.376a.684.684,0,0,0,.116.457.71.71,0,0,0,.5.13v.113h-1.976Z" fill="#016937"/>
      <path id="Path_2551" data-name="Path 2551" d="M1605.58,115.722a1.549,1.549,0,0,1,.461,1.2h-2.759a2.313,2.313,0,0,0,.456,1.465,1.275,1.275,0,0,0,.978.459,1.232,1.232,0,0,0,.769-.238,2.421,2.421,0,0,0,.578-.676l.152.052a2.484,2.484,0,0,1-.667,1.022,1.659,1.659,0,0,1-1.2.47,1.462,1.462,0,0,1-1.262-.617,2.361,2.361,0,0,1-.445-1.42,2.312,2.312,0,0,1,.517-1.508,1.653,1.653,0,0,1,1.346-.634A1.532,1.532,0,0,1,1605.58,115.722Zm-2.081.332a1.72,1.72,0,0,0-.2.591h1.833a1.8,1.8,0,0,0-.165-.647.751.751,0,0,0-.713-.383A.83.83,0,0,0,1603.5,116.054Z" fill="#016937"/>
      <path id="Path_2552" data-name="Path 2552" d="M1606.4,119.251a.786.786,0,0,0,.433-.154.738.738,0,0,0,.123-.515v-2.207a1.013,1.013,0,0,0-.052-.388.341.341,0,0,0-.338-.163.744.744,0,0,0-.081,0l-.1.013v-.152q.179-.053.843-.269l.408-.135c.02,0,.033.007.037.022a.231.231,0,0,1,.007.061v.638a4.356,4.356,0,0,1,.624-.512,1.3,1.3,0,0,1,.7-.213.918.918,0,0,1,.538.169,1.344,1.344,0,0,1,.468,1.177v2.029a.664.664,0,0,0,.126.452.548.548,0,0,0,.417.143v.122H1608.7v-.122a.741.741,0,0,0,.443-.176.891.891,0,0,0,.125-.575v-1.855a1.249,1.249,0,0,0-.138-.619.532.532,0,0,0-.509-.246.941.941,0,0,0-.519.174,3.072,3.072,0,0,0-.38.33v2.433a.506.506,0,0,0,.139.419.765.765,0,0,0,.439.115v.122h-1.9Z" fill="#016937"/>
      <path id="Path_2553" data-name="Path 2553" d="M1612.774,115.368v.312h-.886l-.008,2.5a1.659,1.659,0,0,0,.056.5.4.4,0,0,0,.409.3.493.493,0,0,0,.271-.074,1.4,1.4,0,0,0,.263-.235l.113.1-.1.13a1.381,1.381,0,0,1-.478.43,1.085,1.085,0,0,1-.486.126.684.684,0,0,1-.695-.456,1.879,1.879,0,0,1-.1-.686V115.68h-.474a.11.11,0,0,1-.032-.026.053.053,0,0,1-.011-.035.1.1,0,0,1,.02-.067,1.292,1.292,0,0,1,.123-.111,3.751,3.751,0,0,0,.432-.4q.134-.155.624-.815a.137.137,0,0,1,.067.009c.007.006.011.027.011.065v1.069Z" fill="#016937"/>
      <path id="Path_2554" data-name="Path 2554" d="M1615.627,115.895a1.835,1.835,0,0,1,1.414-.6,1.93,1.93,0,0,1,1.425.565,2.032,2.032,0,0,1,.565,1.5,2.237,2.237,0,0,1-.548,1.5,1.778,1.778,0,0,1-1.416.639,1.868,1.868,0,0,1-1.412-.613,2.154,2.154,0,0,1-.578-1.538A2.084,2.084,0,0,1,1615.627,115.895Zm.694-.11a1.776,1.776,0,0,0-.436,1.364,3.058,3.058,0,0,0,.351,1.442,1.072,1.072,0,0,0,.972.669.825.825,0,0,0,.751-.448,2.288,2.288,0,0,0,.264-1.172,3.111,3.111,0,0,0-.335-1.417,1.052,1.052,0,0,0-.971-.664A.862.862,0,0,0,1616.321,115.785Z" fill="#016937"/>
      <path id="Path_2555" data-name="Path 2555" d="M1619.3,119.251a.931.931,0,0,0,.606-.171.954.954,0,0,0,.145-.632v-2.789h-.743v-.291h.743a3.178,3.178,0,0,1,.187-1.16,1.305,1.305,0,0,1,1.31-.908,1.5,1.5,0,0,1,.686.152.458.458,0,0,1,.3.408.368.368,0,0,1-.1.256.338.338,0,0,1-.466.037,1.23,1.23,0,0,1-.217-.267l-.073-.113a.622.622,0,0,0-.143-.154.367.367,0,0,0-.229-.063.441.441,0,0,0-.445.326,1.337,1.337,0,0,0-.065.456v1.03h1.082v.291h-1.082v2.789a.973.973,0,0,0,.133.627,1.2,1.2,0,0,0,.693.176v.122h-2.32Z" fill="#016937"/>
      <path id="Path_2556" data-name="Path 2556" d="M1572.734,130.309a1.066,1.066,0,0,0,.788-.215.939.939,0,0,0,.181-.629v-5.042a.641.641,0,0,0-.207-.569,1.657,1.657,0,0,0-.736-.177v-.27h2.674l2.088,4.913h.088l2.077-4.913h2.675v.27a1.424,1.424,0,0,0-.736.2q-.2.158-.2.771v4.694a1.066,1.066,0,0,0,.2.767,1.174,1.174,0,0,0,.736.2v.27h-3.524v-.27a1.5,1.5,0,0,0,.71-.158q.239-.143.239-.624V124.34h-.078l-2.6,6.239h-.285l-2.627-6.115h-.047v4.8a1.239,1.239,0,0,0,.2.776,1.177,1.177,0,0,0,.87.27v.27h-2.482Z" fill="#016937"/>
      <path id="Path_2557" data-name="Path 2557" d="M1583.352,128.451a9.367,9.367,0,0,1,2.161-.847v-.772a1.032,1.032,0,0,0-.2-.7.914.914,0,0,0-.707-.225.938.938,0,0,0-.469.106.309.309,0,0,0-.184.267.229.229,0,0,0,.021.1.425.425,0,0,0,.062.088l.062.073a.775.775,0,0,1,.117.194.589.589,0,0,1,.044.225.565.565,0,0,1-.2.464.708.708,0,0,1-.464.163.779.779,0,0,1-.52-.181.641.641,0,0,1-.215-.522,1.089,1.089,0,0,1,.575-.966,2.632,2.632,0,0,1,1.414-.357,3,3,0,0,1,1.508.347,1.373,1.373,0,0,1,.6,1.3v2.57a.314.314,0,0,0,.06.194.167.167,0,0,0,.132.081.252.252,0,0,0,.112-.024.7.7,0,0,0,.152-.127l.161.223a1.727,1.727,0,0,1-.689.508,1.373,1.373,0,0,1-.5.093.827.827,0,0,1-.689-.275,1.049,1.049,0,0,1-.181-.462,2.5,2.5,0,0,1-.995.623,2.064,2.064,0,0,1-.663.114,1.349,1.349,0,0,1-.814-.278,1,1,0,0,1-.378-.864A1.279,1.279,0,0,1,1583.352,128.451Zm1.85,1.366a2.113,2.113,0,0,0,.295-.291v-1.554a2.229,2.229,0,0,0-.746.328,1.137,1.137,0,0,0-.544.966.775.775,0,0,0,.158.527.465.465,0,0,0,.355.18A.825.825,0,0,0,1585.2,129.817Z" fill="#016937"/>
      <path id="Path_2558" data-name="Path 2558" d="M1587.658,126.159v-.295q.14-.13.347-.306.274-.253.519-.524a8.743,8.743,0,0,0,.875-1.134h.27v1.792h1.01v.467h-1.01v3.192a.913.913,0,0,0,.067.373.353.353,0,0,0,.342.233.457.457,0,0,0,.347-.148,1.922,1.922,0,0,0,.28-.406l.254.124a2.431,2.431,0,0,1-.445.71,1.475,1.475,0,0,1-1.113.482,1.44,1.44,0,0,1-.652-.14,1,1,0,0,1-.542-.979v-3.441Z" fill="#016937"/>
      <path id="Path_2559" data-name="Path 2559" d="M1590.98,130.325a.783.783,0,0,0,.427-.158.643.643,0,0,0,.137-.485v-5.4a.677.677,0,0,0-.114-.447.724.724,0,0,0-.45-.17v-.254h2.052v2.985a2.685,2.685,0,0,1,.686-.609,1.556,1.556,0,0,1,.811-.215,1.463,1.463,0,0,1,1.011.355,1.557,1.557,0,0,1,.4,1.21v2.549a.647.647,0,0,0,.121.469.886.886,0,0,0,.407.174v.254h-2.492v-.254a.818.818,0,0,0,.388-.155.652.652,0,0,0,.1-.446v-2.57a1.53,1.53,0,0,0-.073-.544.48.48,0,0,0-.492-.327.882.882,0,0,0-.567.254c-.195.169-.293.285-.293.347v2.84a.652.652,0,0,0,.1.446.817.817,0,0,0,.388.155v.254h-2.554Z" fill="#016937"/>
      <path id="Path_2560" data-name="Path 2560" d="M1597.383,126.244a2.1,2.1,0,0,1,1.569-.676,1.9,1.9,0,0,1,.986.275,1.845,1.845,0,0,1,.711.761,2.932,2.932,0,0,1,.259.954,3.53,3.53,0,0,1,.037.419h-2.71a3.841,3.841,0,0,0,.207,1.1,1.124,1.124,0,0,0,1.1.876,1.212,1.212,0,0,0,.706-.233,3.229,3.229,0,0,0,.5-.472l.243.151a2.832,2.832,0,0,1-1.141,1.124,2.2,2.2,0,0,1-.965.2,2.155,2.155,0,0,1-1.468-.617,2.526,2.526,0,0,1-.685-1.969A2.627,2.627,0,0,1,1597.383,126.244Zm2.255,1.34a4.468,4.468,0,0,0-.145-1.311.525.525,0,0,0-.541-.373.569.569,0,0,0-.569.43,4.268,4.268,0,0,0-.174,1.254Z" fill="#016937"/>
      <path id="Path_2561" data-name="Path 2561" d="M1601.168,130.325a.83.83,0,0,0,.4-.124.633.633,0,0,0,.177-.519v-3.119a.656.656,0,0,0-.119-.455.8.8,0,0,0-.456-.162v-.254h2.01v.762a2.887,2.887,0,0,1,.513-.539,1.668,1.668,0,0,1,1.026-.347,1.477,1.477,0,0,1,.99.3,1.639,1.639,0,0,1,.373.559h.072a2.836,2.836,0,0,1,.575-.554,1.618,1.618,0,0,1,.949-.306,1.49,1.49,0,0,1,.987.358,1.389,1.389,0,0,1,.427,1.129v2.669a.634.634,0,0,0,.12.469.794.794,0,0,0,.419.132v.254h-2.518v-.254a.79.79,0,0,0,.4-.143.634.634,0,0,0,.114-.458v-2.57a1.386,1.386,0,0,0-.122-.643.475.475,0,0,0-.463-.228.926.926,0,0,0-.578.251q-.3.252-.3.35v2.84a.653.653,0,0,0,.1.446.822.822,0,0,0,.389.155v.254h-2.482v-.254a.783.783,0,0,0,.4-.137.629.629,0,0,0,.119-.464v-2.57a1.476,1.476,0,0,0-.114-.638.473.473,0,0,0-.472-.233.866.866,0,0,0-.606.267c-.186.178-.28.289-.28.334v2.84a.675.675,0,0,0,.1.446.79.79,0,0,0,.389.155v.254h-2.539Z" fill="#016937"/>
      <path id="Path_2562" data-name="Path 2562" d="M1610.583,128.451a9.347,9.347,0,0,1,2.161-.847v-.772a1.032,1.032,0,0,0-.2-.7.914.914,0,0,0-.707-.225.935.935,0,0,0-.469.106.309.309,0,0,0-.184.267.23.23,0,0,0,.021.1.391.391,0,0,0,.062.088l.062.073a.744.744,0,0,1,.116.194.572.572,0,0,1,.045.225.566.566,0,0,1-.2.464.709.709,0,0,1-.464.163.779.779,0,0,1-.52-.181.64.64,0,0,1-.215-.522,1.089,1.089,0,0,1,.575-.966,2.632,2.632,0,0,1,1.414-.357,3,3,0,0,1,1.508.347,1.373,1.373,0,0,1,.6,1.3v2.57a.313.313,0,0,0,.06.194.166.166,0,0,0,.132.081.251.251,0,0,0,.111-.024.672.672,0,0,0,.153-.127l.161.223a1.727,1.727,0,0,1-.689.508,1.373,1.373,0,0,1-.5.093.826.826,0,0,1-.689-.275,1.036,1.036,0,0,1-.181-.462,2.5,2.5,0,0,1-.995.623,2.066,2.066,0,0,1-.664.114,1.348,1.348,0,0,1-.813-.278,1,1,0,0,1-.378-.864A1.279,1.279,0,0,1,1610.583,128.451Zm1.85,1.366a2.12,2.12,0,0,0,.3-.291v-1.554a2.228,2.228,0,0,0-.746.328,1.137,1.137,0,0,0-.544.966.77.77,0,0,0,.158.527.464.464,0,0,0,.355.18A.826.826,0,0,0,1612.433,129.817Z" fill="#016937"/>
      <path id="Path_2563" data-name="Path 2563" d="M1614.889,126.159v-.295q.14-.13.347-.306.274-.253.518-.524a8.739,8.739,0,0,0,.876-1.134h.27v1.792h1.01v.467h-1.01v3.192a.911.911,0,0,0,.067.373.353.353,0,0,0,.342.233.457.457,0,0,0,.347-.148,1.959,1.959,0,0,0,.28-.406l.254.124a2.431,2.431,0,0,1-.445.71,1.476,1.476,0,0,1-1.114.482,1.446,1.446,0,0,1-.652-.14,1,1,0,0,1-.541-.979v-3.441Z" fill="#016937"/>
      <path id="Path_2564" data-name="Path 2564" d="M1618.211,130.325a.787.787,0,0,0,.383-.14.656.656,0,0,0,.156-.5v-3.119a.669.669,0,0,0-.109-.442.794.794,0,0,0-.43-.175v-.254h2.036v4.032a.652.652,0,0,0,.1.446.818.818,0,0,0,.388.155v.254h-2.528Zm.707-6.837a.826.826,0,1,1-.241.583A.793.793,0,0,1,1618.918,123.488Z" fill="#016937"/>
      <path id="Path_2565" data-name="Path 2565" d="M1624.67,125.884a.978.978,0,0,1,.489.84.693.693,0,0,1-1.041.585.635.635,0,0,1-.285-.6c0-.031,0-.077.005-.137s.005-.125.005-.195a.47.47,0,0,0-.129-.383.49.49,0,0,0-.306-.1.723.723,0,0,0-.7.542,3.438,3.438,0,0,0-.208,1.241,3.263,3.263,0,0,0,.394,1.668,1.193,1.193,0,0,0,1.062.674,1.315,1.315,0,0,0,.715-.186,2.2,2.2,0,0,0,.436-.4l.2.182a2.71,2.71,0,0,1-1.213.989,2.165,2.165,0,0,1-.782.14,2.128,2.128,0,0,1-1.669-.73,2.59,2.59,0,0,1-.647-1.783,2.756,2.756,0,0,1,.686-1.888,2.319,2.319,0,0,1,1.832-.78A2.046,2.046,0,0,1,1624.67,125.884Z" fill="#016937"/>
      <path id="Path_2566" data-name="Path 2566" d="M1625.543,128.973h.3a1.692,1.692,0,0,0,.58,1.075,1.45,1.45,0,0,0,.87.313.84.84,0,0,0,.6-.184.639.639,0,0,0,.192-.484.655.655,0,0,0-.207-.487,1.477,1.477,0,0,0-.368-.233l-.788-.384a2.464,2.464,0,0,1-.891-.663,1.349,1.349,0,0,1-.275-.845,1.486,1.486,0,0,1,.431-1.065,1.589,1.589,0,0,1,1.2-.448,2.544,2.544,0,0,1,.715.111,2.437,2.437,0,0,0,.471.112.255.255,0,0,0,.184-.054.416.416,0,0,0,.091-.153h.233v1.533h-.269a1.865,1.865,0,0,0-.493-.865,1.118,1.118,0,0,0-.8-.326.659.659,0,0,0-.525.2.628.628,0,0,0-.174.425.589.589,0,0,0,.155.373,1.641,1.641,0,0,0,.57.393l.581.28a3.008,3.008,0,0,1,.787.5,1.384,1.384,0,0,1,.415,1.021,1.687,1.687,0,0,1-.428,1.1,1.578,1.578,0,0,1-1.282.51,2.159,2.159,0,0,1-.428-.044,4.3,4.3,0,0,1-.531-.153l-.181-.062a1.255,1.255,0,0,0-.122-.041.238.238,0,0,0-.059-.006.2.2,0,0,0-.153.07,1.029,1.029,0,0,0-.148.236h-.254Z" fill="#016937"/>
      <path id="Path_2567" data-name="Path 2567" d="M1632.588,128.663a9.454,9.454,0,0,1,1.594-.708v-.369a1.519,1.519,0,0,0-.087-.617.618.618,0,0,0-.612-.291.84.84,0,0,0-.422.113.359.359,0,0,0-.2.321,1.246,1.246,0,0,0,.022.176,1.207,1.207,0,0,1,.022.159.363.363,0,0,1-.161.339.41.41,0,0,1-.217.056.367.367,0,0,1-.3-.128.443.443,0,0,1-.1-.285.9.9,0,0,1,.376-.636,1.61,1.61,0,0,1,1.1-.332,1.184,1.184,0,0,1,1.143.547,1.9,1.9,0,0,1,.16.873v1.742a1.175,1.175,0,0,0,.035.348.227.227,0,0,0,.235.169.4.4,0,0,0,.165-.03,1.9,1.9,0,0,0,.226-.148v.226a1.443,1.443,0,0,1-.3.278.875.875,0,0,1-.495.165.484.484,0,0,1-.428-.191.858.858,0,0,1-.146-.456,3.991,3.991,0,0,1-.565.425,1.473,1.473,0,0,1-.751.235.9.9,0,0,1-.647-.263.882.882,0,0,1-.274-.667A1.237,1.237,0,0,1,1632.588,128.663Zm1.594-.491a3.976,3.976,0,0,0-.825.365,1.076,1.076,0,0,0-.626.877.669.669,0,0,0,.261.583.633.633,0,0,0,.378.121,1.036,1.036,0,0,0,.549-.16.474.474,0,0,0,.263-.409Z" fill="#016937"/>
      <path id="Path_2568" data-name="Path 2568" d="M1635.564,130.457a.785.785,0,0,0,.432-.154.737.737,0,0,0,.124-.515v-2.207a1.031,1.031,0,0,0-.052-.388.343.343,0,0,0-.339-.163.759.759,0,0,0-.081,0l-.1.013v-.152q.179-.052.843-.269l.408-.135c.021,0,.033.007.037.022a.2.2,0,0,1,.007.061v.638a4.418,4.418,0,0,1,.624-.512,1.3,1.3,0,0,1,.7-.213.917.917,0,0,1,.537.169,1.342,1.342,0,0,1,.469,1.177v2.029a.664.664,0,0,0,.125.452.549.549,0,0,0,.418.143v.122h-1.855v-.122a.742.742,0,0,0,.443-.176.89.89,0,0,0,.126-.575v-1.855a1.249,1.249,0,0,0-.138-.619.535.535,0,0,0-.51-.246.936.936,0,0,0-.518.174,3.067,3.067,0,0,0-.381.33v2.433a.509.509,0,0,0,.139.419.765.765,0,0,0,.439.115v.122h-1.9Z" fill="#016937"/>
      <path id="Path_2569" data-name="Path 2569" d="M1642.363,126.613a1.38,1.38,0,0,1,.334.251v-1.381a.788.788,0,0,0-.059-.365c-.039-.066-.132-.1-.28-.1a.8.8,0,0,0-.091.005l-.174.017V124.9l.357-.092q.2-.051.39-.108c.131-.038.245-.074.344-.109.046-.014.123-.042.23-.082l.026.008-.009.456c0,.166-.006.336-.008.511s-.005.348-.005.519l-.008,3.549a.814.814,0,0,0,.069.4c.046.075.17.113.369.113q.048,0,.1,0a.741.741,0,0,0,.095-.01v.143l-.629.217-.682.256-.031-.039v-.534a2.3,2.3,0,0,1-.421.378,1.378,1.378,0,0,1-.735.195,1.459,1.459,0,0,1-1.2-.571,2.052,2.052,0,0,1-.459-1.323,2.485,2.485,0,0,1,.55-1.618,1.674,1.674,0,0,1,1.344-.675A1.233,1.233,0,0,1,1642.363,126.613Zm.126,3.379a.551.551,0,0,0,.208-.378v-1.863a.947.947,0,0,0-.3-.8.971.971,0,0,0-.589-.233.955.955,0,0,0-.851.485,2.2,2.2,0,0,0-.3,1.192,2.4,2.4,0,0,0,.324,1.247,1.051,1.051,0,0,0,.966.547A.756.756,0,0,0,1642.489,129.992Z" fill="#016937"/>
      <path id="Path_2570" data-name="Path 2570" d="M1572.76,141.516a1.647,1.647,0,0,0,.648-.109.65.65,0,0,0,.321-.638v-5.14a.643.643,0,0,0-.305-.628,1.749,1.749,0,0,0-.664-.118v-.269h3.71v.269a1.9,1.9,0,0,0-.683.113.642.642,0,0,0-.311.633v5.14a.642.642,0,0,0,.248.6,1.474,1.474,0,0,0,.746.151v.269h-3.71Z" fill="#016937"/>
      <path id="Path_2571" data-name="Path 2571" d="M1576.678,141.531a.783.783,0,0,0,.427-.158.641.641,0,0,0,.138-.484v-3.12a.679.679,0,0,0-.112-.449.722.722,0,0,0-.453-.167V136.9h2.011v.762a2.183,2.183,0,0,1,.645-.635,1.575,1.575,0,0,1,.868-.251,1.489,1.489,0,0,1,1.059.353,1.651,1.651,0,0,1,.376,1.238v2.565a.613.613,0,0,0,.122.461.784.784,0,0,0,.406.14v.254h-2.492v-.254a.828.828,0,0,0,.389-.155.653.653,0,0,0,.1-.446v-2.57a1.557,1.557,0,0,0-.072-.544.48.48,0,0,0-.493-.327.757.757,0,0,0-.505.2,1.805,1.805,0,0,0-.355.4v2.84a.652.652,0,0,0,.1.446.822.822,0,0,0,.389.155v.254h-2.555Z" fill="#016937"/>
      <path id="Path_2572" data-name="Path 2572" d="M1582.342,141.531a.843.843,0,0,0,.469-.145.643.643,0,0,0,.142-.5v-3.451h-.611v-.467h.611v-.394a2.772,2.772,0,0,1,.233-1.217,1.648,1.648,0,0,1,1.627-.892,1.9,1.9,0,0,1,1.07.288.874.874,0,0,1,.438.759.639.639,0,0,1-.184.477.663.663,0,0,1-.489.181.621.621,0,0,1-.436-.166.519.519,0,0,1-.181-.4.719.719,0,0,1,.117-.37.84.84,0,0,0,.116-.236.158.158,0,0,0-.093-.166.557.557,0,0,0-.2-.036.518.518,0,0,0-.4.15,1.02,1.02,0,0,0-.14.648v1.373h.922v.467h-.922V140.7q0,.549.158.674a1.448,1.448,0,0,0,.7.16v.254h-2.948Z" fill="#016937"/>
      <path id="Path_2573" data-name="Path 2573" d="M1586.433,137.505a2.227,2.227,0,0,1,1.712-.741,2.2,2.2,0,0,1,1.723.756,2.846,2.846,0,0,1,.008,3.661,2.181,2.181,0,0,1-1.731.764,2.221,2.221,0,0,1-1.715-.743,2.854,2.854,0,0,1,0-3.7Zm.992,3.409q.181.69.72.689a.658.658,0,0,0,.674-.528,6.526,6.526,0,0,0,.161-1.72,6.217,6.217,0,0,0-.169-1.718.658.658,0,0,0-.66-.531q-.54,0-.721.689a7.059,7.059,0,0,0-.119,1.56A7.21,7.21,0,0,0,1587.425,140.914Z" fill="#016937"/>
      <path id="Path_2574" data-name="Path 2574" d="M1590.8,141.531a.78.78,0,0,0,.425-.145.6.6,0,0,0,.129-.42l.011-.311v-2.886a.676.676,0,0,0-.114-.454.752.752,0,0,0-.451-.162V136.9h2.01v.835a3.867,3.867,0,0,1,.67-.7,1.221,1.221,0,0,1,.769-.259.919.919,0,0,1,.589.21.741.741,0,0,1,.263.614.733.733,0,0,1-.185.513.619.619,0,0,1-.48.2.727.727,0,0,1-.585-.316q-.246-.316-.345-.316a.583.583,0,0,0-.428.262,1.147,1.147,0,0,0-.216.749v2.01q0,.525.153.656a1.144,1.144,0,0,0,.609.173v.254H1590.8Z" fill="#016937"/>
      <path id="Path_2575" data-name="Path 2575" d="M1595.281,141.531a.839.839,0,0,0,.4-.124.631.631,0,0,0,.176-.518v-3.12a.646.646,0,0,0-.119-.454.779.779,0,0,0-.456-.162V136.9h2.011v.762a2.887,2.887,0,0,1,.513-.539,1.666,1.666,0,0,1,1.026-.347,1.476,1.476,0,0,1,.989.3,1.619,1.619,0,0,1,.373.56h.073a2.793,2.793,0,0,1,.575-.555,1.614,1.614,0,0,1,.948-.306,1.491,1.491,0,0,1,.987.358,1.391,1.391,0,0,1,.428,1.129v2.669c0,.245.039.4.119.469a.8.8,0,0,0,.42.132v.254h-2.518v-.254a.791.791,0,0,0,.4-.142.639.639,0,0,0,.114-.459v-2.57a1.386,1.386,0,0,0-.122-.643.477.477,0,0,0-.464-.228.924.924,0,0,0-.578.252c-.2.167-.3.284-.3.349v2.84a.652.652,0,0,0,.1.446.818.818,0,0,0,.389.155v.254h-2.483v-.254a.787.787,0,0,0,.4-.137.629.629,0,0,0,.119-.464v-2.57a1.476,1.476,0,0,0-.114-.638.473.473,0,0,0-.472-.233.864.864,0,0,0-.606.267c-.187.178-.28.29-.28.334v2.84a.682.682,0,0,0,.1.446.794.794,0,0,0,.389.155v.254h-2.539Z" fill="#016937"/>
      <path id="Path_2576" data-name="Path 2576" d="M1604.7,139.657a9.391,9.391,0,0,1,2.161-.846v-.772a1.028,1.028,0,0,0-.2-.7.912.912,0,0,0-.708-.226.938.938,0,0,0-.469.106.311.311,0,0,0-.184.267.229.229,0,0,0,.021.1.436.436,0,0,0,.062.088l.063.073a.744.744,0,0,1,.116.194.589.589,0,0,1,.044.225.565.565,0,0,1-.2.464.711.711,0,0,1-.464.163.78.78,0,0,1-.521-.181.644.644,0,0,1-.215-.522,1.092,1.092,0,0,1,.575-.966,2.635,2.635,0,0,1,1.415-.357,3,3,0,0,1,1.508.347,1.373,1.373,0,0,1,.6,1.3v2.57a.319.319,0,0,0,.059.194.167.167,0,0,0,.133.081.251.251,0,0,0,.111-.024.675.675,0,0,0,.153-.127l.16.223a1.726,1.726,0,0,1-.689.508,1.367,1.367,0,0,1-.5.093.825.825,0,0,1-.689-.275,1.049,1.049,0,0,1-.182-.462,2.492,2.492,0,0,1-.995.623,2.056,2.056,0,0,1-.663.114,1.358,1.358,0,0,1-.814-.277,1,1,0,0,1-.378-.865A1.281,1.281,0,0,1,1604.7,139.657Zm1.85,1.366a2.116,2.116,0,0,0,.3-.291v-1.554a2.235,2.235,0,0,0-.747.328,1.14,1.14,0,0,0-.544.966.775.775,0,0,0,.158.527.467.467,0,0,0,.355.18A.822.822,0,0,0,1606.546,141.023Z" fill="#016937"/>
      <path id="Path_2577" data-name="Path 2577" d="M1609,137.365v-.295c.093-.087.209-.189.347-.306.183-.169.355-.344.518-.523a8.917,8.917,0,0,0,.876-1.135h.269V136.9h1.01v.467h-1.01v3.192a.913.913,0,0,0,.067.373.353.353,0,0,0,.342.233.463.463,0,0,0,.348-.147,1.927,1.927,0,0,0,.279-.407l.254.124a2.391,2.391,0,0,1-.445.71,1.475,1.475,0,0,1-1.113.482,1.44,1.44,0,0,1-.652-.14,1,1,0,0,1-.541-.979v-3.441Z" fill="#016937"/>
      <path id="Path_2578" data-name="Path 2578" d="M1612.324,141.531a.792.792,0,0,0,.384-.14.659.659,0,0,0,.155-.5v-3.12a.658.658,0,0,0-.109-.441.776.776,0,0,0-.43-.175V136.9h2.037v4.032a.653.653,0,0,0,.1.446.822.822,0,0,0,.389.155v.254h-2.529Zm.708-6.837a.826.826,0,1,1-.241.583A.79.79,0,0,1,1613.032,134.694Z" fill="#016937"/>
      <path id="Path_2579" data-name="Path 2579" d="M1615.8,137.505a2.228,2.228,0,0,1,1.713-.741,2.2,2.2,0,0,1,1.722.756,2.842,2.842,0,0,1,.008,3.661,2.18,2.18,0,0,1-1.73.764,2.223,2.223,0,0,1-1.716-.743,2.854,2.854,0,0,1,0-3.7Zm.992,3.409q.181.69.721.689a.657.657,0,0,0,.673-.528,6.526,6.526,0,0,0,.161-1.72,6.256,6.256,0,0,0-.169-1.718.658.658,0,0,0-.66-.531q-.54,0-.721.689a7.067,7.067,0,0,0-.119,1.56A7.21,7.21,0,0,0,1616.8,140.914Z" fill="#016937"/>
      <path id="Path_2580" data-name="Path 2580" d="M1620.154,141.531a.787.787,0,0,0,.428-.158.646.646,0,0,0,.137-.484v-3.12a.679.679,0,0,0-.112-.449.722.722,0,0,0-.453-.167V136.9h2.011v.762a2.18,2.18,0,0,1,.645-.635,1.577,1.577,0,0,1,.868-.251,1.487,1.487,0,0,1,1.059.353,1.651,1.651,0,0,1,.376,1.238v2.565a.618.618,0,0,0,.122.461.788.788,0,0,0,.407.14v.254h-2.493v-.254a.822.822,0,0,0,.389-.155.652.652,0,0,0,.1-.446v-2.57a1.553,1.553,0,0,0-.073-.544.48.48,0,0,0-.492-.327.753.753,0,0,0-.505.2,1.751,1.751,0,0,0-.355.4v2.84a.654.654,0,0,0,.1.446.823.823,0,0,0,.389.155v.254h-2.555Z" fill="#016937"/>
      <path id="Path_2581" data-name="Path 2581" d="M1628.207,134.614h6.389l.01,2.139h-.3a1.946,1.946,0,0,0-.86-1.553,2.651,2.651,0,0,0-1.192-.245v5.591a1.084,1.084,0,0,0,.2.778,1.322,1.322,0,0,0,.853.192v.269h-3.783v-.269a1.246,1.246,0,0,0,.827-.2,1.083,1.083,0,0,0,.2-.775v-5.591a2.72,2.72,0,0,0-1.192.245,1.8,1.8,0,0,0-.86,1.553h-.3Z" fill="#016937"/>
      <path id="Path_2582" data-name="Path 2582" d="M1634.7,137.45a2.1,2.1,0,0,1,1.569-.676,1.9,1.9,0,0,1,.986.275,1.842,1.842,0,0,1,.711.762,2.938,2.938,0,0,1,.26.953,3.482,3.482,0,0,1,.036.42h-2.71a3.844,3.844,0,0,0,.207,1.1,1.125,1.125,0,0,0,1.1.875,1.21,1.21,0,0,0,.706-.233,3.18,3.18,0,0,0,.5-.472l.243.151a2.832,2.832,0,0,1-1.141,1.124,2.2,2.2,0,0,1-.965.2,2.16,2.16,0,0,1-1.468-.616,2.527,2.527,0,0,1-.685-1.969A2.628,2.628,0,0,1,1634.7,137.45Zm2.256,1.34a4.459,4.459,0,0,0-.146-1.311.525.525,0,0,0-.541-.373.569.569,0,0,0-.569.43,4.264,4.264,0,0,0-.174,1.254Z" fill="#016937"/>
      <path id="Path_2583" data-name="Path 2583" d="M1642.211,137.09a.979.979,0,0,1,.49.84.661.661,0,0,1-.2.476.705.705,0,0,1-.847.109.635.635,0,0,1-.285-.6c0-.031,0-.077.005-.137s.006-.125.006-.194a.472.472,0,0,0-.13-.384.49.49,0,0,0-.306-.1.723.723,0,0,0-.7.542,3.438,3.438,0,0,0-.207,1.241,3.269,3.269,0,0,0,.393,1.669,1.192,1.192,0,0,0,1.063.673,1.317,1.317,0,0,0,.715-.186,2.23,2.23,0,0,0,.435-.4l.2.182a2.719,2.719,0,0,1-1.213.99,2.187,2.187,0,0,1-.782.139,2.128,2.128,0,0,1-1.669-.73,2.59,2.59,0,0,1-.647-1.783,2.756,2.756,0,0,1,.686-1.888,2.319,2.319,0,0,1,1.832-.78A2.042,2.042,0,0,1,1642.211,137.09Z" fill="#016937"/>
      <path id="Path_2584" data-name="Path 2584" d="M1642.986,141.531a.783.783,0,0,0,.427-.158.641.641,0,0,0,.138-.484v-5.405a.685.685,0,0,0-.114-.447.73.73,0,0,0-.451-.17v-.253h2.052V137.6a2.723,2.723,0,0,1,.686-.609,1.556,1.556,0,0,1,.811-.215,1.468,1.468,0,0,1,1.011.355,1.557,1.557,0,0,1,.4,1.21v2.55a.646.646,0,0,0,.121.468.881.881,0,0,0,.407.174v.254h-2.492v-.254a.818.818,0,0,0,.388-.155.647.647,0,0,0,.1-.446v-2.57a1.53,1.53,0,0,0-.073-.544.479.479,0,0,0-.492-.327.882.882,0,0,0-.567.254c-.195.17-.293.285-.293.347v2.84a.647.647,0,0,0,.1.446.818.818,0,0,0,.388.155v.254h-2.554Z" fill="#016937"/>
      <path id="Path_2585" data-name="Path 2585" d="M1648.676,141.531a.786.786,0,0,0,.427-.158.642.642,0,0,0,.137-.484v-3.12a.686.686,0,0,0-.111-.449.722.722,0,0,0-.453-.167V136.9h2.01v.762a2.18,2.18,0,0,1,.645-.635,1.577,1.577,0,0,1,.868-.251,1.491,1.491,0,0,1,1.06.353,1.655,1.655,0,0,1,.375,1.238v2.565a.618.618,0,0,0,.122.461.788.788,0,0,0,.407.14v.254h-2.492v-.254a.818.818,0,0,0,.388-.155.652.652,0,0,0,.1-.446v-2.57a1.527,1.527,0,0,0-.073-.544.48.48,0,0,0-.492-.327.757.757,0,0,0-.505.2,1.778,1.778,0,0,0-.355.4v2.84a.654.654,0,0,0,.1.446.828.828,0,0,0,.389.155v.254h-2.554Z" fill="#016937"/>
      <path id="Path_2586" data-name="Path 2586" d="M1655.109,137.505a2.227,2.227,0,0,1,1.712-.741,2.2,2.2,0,0,1,1.723.756,2.845,2.845,0,0,1,.008,3.661,2.181,2.181,0,0,1-1.731.764,2.221,2.221,0,0,1-1.715-.743,2.851,2.851,0,0,1,0-3.7Zm.992,3.409q.182.69.72.689a.658.658,0,0,0,.674-.528,6.526,6.526,0,0,0,.161-1.72,6.256,6.256,0,0,0-.169-1.718.658.658,0,0,0-.661-.531q-.539,0-.72.689a7.069,7.069,0,0,0-.119,1.56A7.22,7.22,0,0,0,1656.1,140.914Z" fill="#016937"/>
      <path id="Path_2587" data-name="Path 2587" d="M1659.459,141.531a.866.866,0,0,0,.4-.179.655.655,0,0,0,.117-.463v-5.405a.637.637,0,0,0-.109-.445.9.9,0,0,0-.4-.172v-.253h2.01v6.275a.66.66,0,0,0,.114.461.925.925,0,0,0,.405.181v.254h-2.529Z" fill="#016937"/>
      <path id="Path_2588" data-name="Path 2588" d="M1662.939,137.505a2.227,2.227,0,0,1,1.712-.741,2.2,2.2,0,0,1,1.723.756,2.845,2.845,0,0,1,.008,3.661,2.181,2.181,0,0,1-1.731.764,2.221,2.221,0,0,1-1.715-.743,2.851,2.851,0,0,1,0-3.7Zm.992,3.409q.181.69.72.689a.658.658,0,0,0,.674-.528,6.526,6.526,0,0,0,.161-1.72,6.256,6.256,0,0,0-.169-1.718.658.658,0,0,0-.661-.531q-.539,0-.72.689a7.067,7.067,0,0,0-.119,1.56A7.21,7.21,0,0,0,1663.931,140.914Z" fill="#016937"/>
      <path id="Path_2589" data-name="Path 2589" d="M1667.551,142.544a.987.987,0,0,1,.655-.313v-.073a1.52,1.52,0,0,1-.451-.244.758.758,0,0,1-.249-.6.952.952,0,0,1,.392-.762,2.485,2.485,0,0,1,.764-.441v-.072a2.128,2.128,0,0,1-.87-.622,1.56,1.56,0,0,1,.248-2.176,2.419,2.419,0,0,1,1.57-.472,3.026,3.026,0,0,1,.684.073,2.637,2.637,0,0,1,.482.15h1.4v.565h-.86a1.419,1.419,0,0,1,.319.471,1.525,1.525,0,0,1,.111.586,1.356,1.356,0,0,1-.948,1.363,3.391,3.391,0,0,1-1.239.2c-.107,0-.177,0-.209-.005a1.335,1.335,0,0,0-.148-.006.723.723,0,0,0-.326.166.437.437,0,0,0-.177.347.341.341,0,0,0,.088.249.41.41,0,0,0,.244.109c.052.007.162.013.332.018s.3.008.393.008l.69.01a2.782,2.782,0,0,1,.984.171,1.118,1.118,0,0,1,.762,1.114,1.445,1.445,0,0,1-1.14,1.425,4.808,4.808,0,0,1-1.513.2,4.972,4.972,0,0,1-1.285-.145q-.891-.243-.892-.829A.769.769,0,0,1,1667.551,142.544Zm1.093.914a2.191,2.191,0,0,0,1.013.187,4.235,4.235,0,0,0,.974-.093q.72-.177.72-.651a.465.465,0,0,0-.2-.413,1.426,1.426,0,0,0-.744-.138h-1.741a1.481,1.481,0,0,0-.238.229.591.591,0,0,0-.13.364A.572.572,0,0,0,1668.644,143.458Zm.37-4.067a.6.6,0,0,0,.6.466.547.547,0,0,0,.549-.349,2.691,2.691,0,0,0,.151-1.024,2.543,2.543,0,0,0-.158-1.041.554.554,0,0,0-.542-.327.545.545,0,0,0-.559.35,2.871,2.871,0,0,0-.14,1.018A2.94,2.94,0,0,0,1669.014,139.391Z" fill="#016937"/>
      <path id="Path_2590" data-name="Path 2590" d="M1672.435,142.619a.849.849,0,0,1,.532-.171.651.651,0,0,1,.444.151.457.457,0,0,1,.174.357l-.026.233a.181.181,0,0,0,.054.125.184.184,0,0,0,.138.056c.185,0,.356-.143.515-.431a8.253,8.253,0,0,0,.432-1.045l-1.258-3.107c-.09-.221-.177-.429-.262-.622s-.173-.383-.267-.566a1.357,1.357,0,0,0-.228-.353.541.541,0,0,0-.3-.093V136.9h2.652v.255a1.405,1.405,0,0,0-.407.057.213.213,0,0,0-.158.223.37.37,0,0,0,.018.1c.012.042.039.116.081.223l.845,2.088h.053l.7-1.865c.035-.1.063-.194.086-.272a.769.769,0,0,0,.033-.205c0-.149-.049-.243-.147-.283a1.308,1.308,0,0,0-.438-.064V136.9h1.606v.255a.644.644,0,0,0-.339.111,1.064,1.064,0,0,0-.272.464l-1.586,4.233a6.9,6.9,0,0,1-.8,1.591,1.253,1.253,0,0,1-1.044.42,1.1,1.1,0,0,1-.787-.257.765.765,0,0,1-.27-.562A.629.629,0,0,1,1672.435,142.619Z" fill="#016937"/>
    </g>
    <circle id="Ellipse_823" data-name="Ellipse 823" cx="5.688" cy="5.688" r="5.688" transform="matrix(0.924, -0.383, 0.383, 0.924, 1538.688, 103.034)" fill="url(#radial-gradient)"/>
    <path id="Path_2591" data-name="Path 2591" d="M1509.323,113.463a3.865,3.865,0,0,1,3.866,3.865v20.578a3.865,3.865,0,0,0,3.865,3.864h-11.98a3.865,3.865,0,0,1-3.865-3.864V117.328a3.865,3.865,0,0,0-3.865-3.865Z" fill-rule="evenodd" fill="url(#linear-gradient)"/>
    <path id="Path_2592" data-name="Path 2592" d="M1523.06,113.463a3.866,3.866,0,0,1,3.866,3.865v20.578a3.865,3.865,0,0,0,3.865,3.864h-11.98a3.865,3.865,0,0,1-3.865-3.864V117.328a3.866,3.866,0,0,0-3.866-3.865Z" fill-rule="evenodd" fill="url(#linear-gradient)"/>
    <path id="Path_2593" data-name="Path 2593" d="M1536.8,113.463a3.865,3.865,0,0,1,3.865,3.865v20.578a3.865,3.865,0,0,0,3.866,3.864h-11.98a3.866,3.866,0,0,1-3.866-3.864V117.328a3.865,3.865,0,0,0-3.865-3.865Z" fill-rule="evenodd" fill="url(#linear-gradient)"/>
    <path id="Path_2594" data-name="Path 2594" d="M1550.534,113.463a3.865,3.865,0,0,1,3.865,3.865v20.578a3.865,3.865,0,0,0,3.865,3.864h-11.979a3.865,3.865,0,0,1-3.866-3.864V117.328a3.865,3.865,0,0,0-3.865-3.865Z" fill-rule="evenodd" fill="url(#linear-gradient-4)"/>
    <path id="Path_2595" data-name="Path 2595" d="M1568.136,137.906V117.334a3.865,3.865,0,0,1,3.865-3.865h-3.865V104.2a3.865,3.865,0,0,0-3.866-3.865h-11.979a3.864,3.864,0,0,1,3.865,3.865v33.705a3.865,3.865,0,0,0,3.865,3.864H1572A3.865,3.865,0,0,1,1568.136,137.906Z" fill-rule="evenodd" fill="url(#linear-gradient-5)"/>
  </g>
</svg>